<svg xmlns="http://www.w3.org/2000/svg" width="299" height="149" viewBox="0 0 299 149"><title>  onion_logo_w</title><desc>  Created with Sketch.</desc><g fill="none"><g transform="translate(-57 -57)translate(57 57)"><path d="M17.4 18.8C21.5 18.8 25.1 22.2 25.1 26.9 25.1 31.5 21.5 35 17.4 35 13.2 35 9.6 31.5 9.6 26.9 9.6 22.2 13.2 18.8 17.4 18.8ZM17.4 43.9C29.1 43.9 34.7 34.7 34.7 26.9 34.7 19 29.1 9.8 17.4 9.8 5.6 9.8 0 19 0 26.9 0 34.7 5.6 43.9 17.4 43.9Z" fill="#000" class="logopath"/><path d="M45.5 25.5C45.5 23.5 45.5 18.8 51 18.8 56 18.8 56 23.2 56 25.4L56 42.9 65.7 42.9 65.7 22.9C65.7 16.6 63.7 14 62 12.5 60.2 11 56.8 9.7 53.7 9.7 48 9.7 45.9 12.7 45 14.2L44.8 14.2 44.8 10.8 35.8 10.8 35.8 42.9 45.5 42.9 45.5 25.5Z" fill="#000" class="logopath"/><mask fill="white"><polygon points="0 148.3 298.9 148.3 298.9 0.1 0 0.1"/></mask><polygon mask="url(#mask-2)" points="68.2 42.9 77.8 42.9 77.8 10.8 68.2 10.8" fill="#000" class="logopath"/><polygon mask="url(#mask-2)" points="68.2 7.4 77.8 7.4 77.8 0.1 68.2 0.1" fill="#000" class="logopath"/><path d="M96.3 18.8C100.5 18.8 104 22.2 104 26.9 104 31.5 100.5 35 96.3 35 92.1 35 88.6 31.5 88.6 26.9 88.6 22.2 92.1 18.8 96.3 18.8M96.3 43.9C108 43.9 113.7 34.7 113.7 26.9 113.7 19 108 9.8 96.3 9.8 84.6 9.8 78.9 19 78.9 26.9 78.9 34.7 84.6 43.9 96.3 43.9" mask="url(#mask-2)" fill="#000" class="logopath"/><path d="M124.4 25.5C124.4 23.5 124.4 18.8 129.9 18.8 135 18.8 135 23.2 135 25.4L135 42.9 144.6 42.9 144.6 22.9C144.6 16.6 142.7 14 140.9 12.5 139.2 11 135.7 9.7 132.7 9.7 126.9 9.7 124.9 12.7 123.9 14.2L123.8 14.2 123.8 10.8 114.8 10.8 114.8 42.9 124.4 42.9 124.4 25.5Z" mask="url(#mask-2)" fill="#000" class="logopath"/><path d="M17.8 70.8C23.2 70.8 26 75 26 78.9 26 82.2 23.8 87.1 17.7 87.1 13.2 87.1 9.6 83.8 9.6 78.9 9.6 75.1 12.3 70.8 17.8 70.8M16.1 96.1C22.6 96.1 25 92.9 25.8 91.6L25.9 91.6 25.9 95.1 35.1 95.1 35.1 52.2 25.4 52.2 25.4 65.7C24.4 64.6 21.7 61.8 16 61.8 7.8 61.8 0 68 0 78.9 0 88.6 6.4 96.1 16.1 96.1" mask="url(#mask-2)" fill="#000" class="logopath"/><path d="M45.6 75.4C46 73.5 47.9 69.9 52.9 69.9 57.9 69.9 59.8 73.5 60.2 75.4L45.6 75.4ZM69.9 79.4C69.9 69.6 62.7 61.8 52.9 61.8 43 61.8 36 70.1 36 79.1 36 88.6 43.8 96.1 53 96.1 56.3 96.1 59.5 95.1 62.2 93.2 64.9 91.4 67.2 88.6 68.8 85L58.9 85C57.6 86.7 56 88 53 88 49.3 88 46.1 85.7 45.5 81.9L69.6 81.9C69.8 81.2 69.9 80.6 69.9 79.4L69.9 79.4Z" mask="url(#mask-2)" fill="#000" class="logopath"/><path d="M81.9 96.2C89 96.2 95 92 95 85.2 95 78.3 89.2 76.7 83.8 75.1 81.2 74.4 78.8 73.4 78.8 71.7 78.8 70.8 79.5 69.5 81.6 69.5 84.4 69.5 84.5 71.3 84.6 72L94 72C93.2 63.5 85.9 61.8 81.7 61.8 75 61.8 69.2 66.1 69.2 72.4 69.2 76.8 72.7 79.5 76.8 80.8 83 83.2 85.4 83.5 85.4 86 85.4 87.5 83.6 88.5 82 88.5 81.6 88.5 78.8 88.5 78.4 85.5L68.8 85.5C69.6 94 77 96.2 81.9 96.2" mask="url(#mask-2)" fill="#000" class="logopath"/><polygon mask="url(#mask-2)" points="95.5 95.1 105.1 95.1 105.1 62.9 95.5 62.9" fill="#000" class="logopath"/><polygon mask="url(#mask-2)" points="95.5 59.5 105.1 59.5 105.1 52.2 95.5 52.2" fill="#000" class="logopath"/><path d="M123.6 87.1C119.6 87.1 115.9 84 115.9 78.9 115.9 74.2 119.5 70.9 123.7 70.9 128 70.9 131.5 74 131.5 79.1 131.5 83.8 128.3 87.1 123.6 87.1M123.6 101.3C123 101.3 119.4 101.3 118 98.1L106.8 98.1C107.5 102.6 111.7 109.4 122.9 109.4 130.9 109.4 136.7 105.8 139.2 101.8 140.8 99.1 141.1 96 141.1 91.2L141.1 62.9 131.5 62.9 131.5 65.9 131.4 65.9C129.6 63.2 126.1 61.9 122.5 61.9 114.1 61.9 106.2 68.2 106.2 79.2 106.2 89.5 113.7 96.1 122.5 96.1 127.6 96.1 130.3 93.4 131.3 91.5L131.4 91.5 131.4 92.5C131.4 101.1 124.8 101.3 123.6 101.3" mask="url(#mask-2)" fill="#000" class="logopath"/><path d="M163.9 77.5L163.9 95.1 173.5 95.1 173.5 75C173.5 68.7 171.5 66.1 169.8 64.6 168 63.1 164.6 61.8 161.5 61.8 155.8 61.8 153.8 64.8 152.8 66.3L152.7 66.3 152.7 62.9 143.7 62.9 143.7 95.1 153.3 95.1 153.3 77.6C153.3 75.6 153.3 70.9 158.8 70.9 163.9 70.9 163.9 75.3 163.9 77.5" mask="url(#mask-2)" fill="#000" class="logopath"/><path d="M17.7 139.3C11.8 139.3 9.6 134.2 9.6 131.2 9.6 127.5 12.1 122.9 17.6 122.9 23.1 122.9 25.7 127.2 25.7 131.1 25.7 134.2 23.7 139.3 17.7 139.3L17.7 139.3ZM25.7 118.5L25.6 118.5C24.4 116.5 21.5 113.9 16.2 113.9 7.6 113.9 0 120.5 0 131.1 0 140.3 6 148.3 16.2 148.3 20 148.3 24 146.8 25.6 143.7L25.7 143.7 25.7 147.2 35.4 147.2 35.4 115 25.7 115 25.7 118.5Z" mask="url(#mask-2)" fill="#000" class="logopath"/><path d="M103.2 139.2C99 139.2 95.4 135.8 95.4 131.1 95.4 126.4 99 123 103.2 123 107.3 123 110.9 126.4 110.9 131.1 110.9 135.8 107.3 139.2 103.2 139.2M73.8 140.6C73.4 140.6 70.6 140.6 70.2 137.6L62.2 137.6C62.2 137.5 62.2 137.4 62.2 137.3 62.2 130.4 56.4 128.8 50.9 127.3 48.4 126.5 46 125.5 46 123.8 46 122.9 46.7 121.6 48.7 121.6 51.6 121.6 51.7 123.4 51.8 124.1L61 124.1C61 124.2 61 124.4 61 124.5 61 128.9 64.5 131.6 68.7 132.9 74.8 135.3 77.2 135.6 77.2 138.1 77.2 139.6 75.5 140.6 73.8 140.6M137.4 139.2C132.8 139.2 129.8 135.8 129.8 131.1 129.8 126.4 132.8 122.7 137.4 122.9 141.4 122.9 143.4 125.2 144.4 127.4L154.2 127.4C152.5 119.6 145.6 113.9 137.1 113.9 128.4 113.9 121.5 120.2 120.3 128.3 119.1 121.2 113.5 114 103.2 114 91.4 114 85.8 123.2 85.8 131.1 85.8 131.8 85.9 132.6 86 133.4 84.2 129.7 79.8 128.4 75.6 127.3 73 126.5 70.6 125.5 70.6 123.8 70.6 122.9 71.3 121.6 73.4 121.6 76.2 121.6 76.3 123.4 76.4 124.1L85.8 124.1C85 115.6 77.7 113.9 73.5 113.9 67.2 113.9 61.7 117.7 61.1 123.5 60 115.6 53 113.9 48.8 113.9 42.2 113.9 36.4 118.2 36.4 124.5 36.4 128.9 39.8 131.6 44 132.9 50.2 135.3 52.6 135.6 52.6 138.1 52.6 139.6 50.8 140.6 49.2 140.6 48.8 140.6 45.9 140.6 45.5 137.6L36 137.6C36.8 146.1 44.2 148.3 49.1 148.3 54.8 148.3 59.7 145.6 61.5 141.1 63.7 146.7 69.6 148.3 73.7 148.3 80.9 148.3 86.8 144.1 86.8 137.3 86.8 137.1 86.8 137 86.8 136.8 88.8 142.8 94.2 148.2 103.2 148.2 113.6 148.2 119.2 140.9 120.3 133.8 121.6 142 128.5 148.2 137.3 148.2 146 148.2 152.5 142.3 154.2 135L144.4 135C143.4 136.9 141.4 139.2 137.4 139.2" mask="url(#mask-2)" fill="#000" class="logopath"/><polygon mask="url(#mask-2)" points="155.1 147.2 164.8 147.2 164.8 115 155.1 115" fill="#000" class="logopath"/><polygon mask="url(#mask-2)" points="155.1 111.6 164.8 111.6 164.8 104.3 155.1 104.3" fill="#000" class="logopath"/><path d="M183.6 139.3C177.7 139.3 175.5 134.2 175.5 131.2 175.5 127.5 178 122.9 183.5 122.9 189 122.9 191.6 127.2 191.6 131.1 191.6 134.2 189.6 139.3 183.6 139.3L183.6 139.3ZM191.6 118.5L191.5 118.5C190.3 116.5 187.4 113.9 182.1 113.9 173.5 113.9 165.9 120.5 165.9 131.1 165.9 140.3 171.9 148.3 182.1 148.3 185.9 148.3 189.9 146.8 191.5 143.7L191.6 143.7 191.6 147.2 201.3 147.2 201.3 115 191.6 115 191.6 118.5Z" mask="url(#mask-2)" fill="#000" class="logopath"/><polygon mask="url(#mask-2)" points="220.4 115 215.8 115 215.8 104.3 206.1 104.3 206.1 115 201.4 115 201.4 122.3 206.1 122.3 206.1 147.2 215.8 147.2 215.8 122.3 220.4 122.3" fill="#000" class="logopath"/><path d="M235.5 122C240.5 122 242.4 125.6 242.8 127.5L228.2 127.5C228.6 125.6 230.5 122 235.5 122M235.6 140.1C231.8 140.1 228.6 137.9 228 134L252.2 134C252.3 133.3 252.4 132.8 252.4 131.5 252.4 121.7 245.2 113.9 235.4 113.9 225.6 113.9 218.5 122.2 218.5 131.2 218.5 140.7 226.4 148.2 235.6 148.2 238.9 148.2 242.1 147.2 244.8 145.3 247.5 143.5 249.8 140.7 251.3 137.1L241.5 137.1C240.1 138.8 238.6 140.1 235.6 140.1" mask="url(#mask-2)" fill="#000" class="logopath"/><path d="M266.3 127.3C263.8 126.5 261.4 125.5 261.4 123.8 261.4 122.9 262.1 121.6 264.1 121.6 267 121.6 267.1 123.4 267.1 124.1L276.6 124.1C275.8 115.6 268.5 113.9 264.2 113.9 257.5 113.9 251.7 118.2 251.7 124.5 251.7 128.9 255.2 131.6 259.4 132.9 265.6 135.3 267.9 135.6 267.9 138.1 267.9 139.6 266.2 140.6 264.6 140.6 264.2 140.6 261.3 140.6 260.9 137.6L251.3 137.6C252.2 146.1 259.6 148.3 264.5 148.3 271.6 148.3 277.6 144.1 277.6 137.3 277.6 130.4 271.8 128.8 266.3 127.3" mask="url(#mask-2)" fill="#000" class="logopath"/><polygon mask="url(#mask-2)" points="281.6 108.7 280.5 108.7 280.5 120.2 286.4 120.2 286.4 119.1 281.6 119.1" fill="#000" class="logopath"/><polygon mask="url(#mask-2)" points="290.3 111.7 288.3 111.7 288.3 108.7 287.2 108.7 287.2 111.7 285.4 111.7 285.4 112.7 287.2 112.7 287.2 120.1 288.3 120.1 288.3 112.7 290.3 112.7" fill="#000" class="logopath"/><path d="M294.5 119.4C292.4 119.4 291 117.8 291 116 291 113.8 292.6 112.5 294.5 112.5 296.4 112.5 297.8 114.1 297.8 115.9 297.8 117.9 296.3 119.4 294.5 119.4L294.5 119.4ZM297.8 108.7L297.8 113.2 297.8 113.2C296.8 111.8 295.4 111.5 294.5 111.5 291.7 111.5 289.9 113.7 289.9 115.9 289.9 118.3 291.8 120.3 294.5 120.3 295.4 120.3 296.9 120 297.8 118.7L297.8 118.7 297.8 120.1 298.9 120.1 298.9 108.7 297.8 108.7Z" mask="url(#mask-2)" fill="#000" class="logopath"/></g></g></svg>
